<svg t="1591779823239" class="icon" viewBox="0 0 1024 1024" version="1.1" xmlns="http://www.w3.org/2000/svg" p-id="1563" width="200" height="200"><path d="M880 112c17.673 0 32 14.327 32 32v736c0 17.673-14.327 32-32 32H120a8 8 0 0 1-8-8V216a8 8 0 0 1 8-8h120v-64c0-17.673 14.327-32 32-32h608zM176 848h64V272h-64v576z m672-672H304v672h544V176z m-72 496a8 8 0 0 1 8 8v48a8 8 0 0 1-8 8H376a8 8 0 0 1-8-8v-48a8 8 0 0 1 8-8h400z m0-128a8 8 0 0 1 8 8v48a8 8 0 0 1-8 8H376a8 8 0 0 1-8-8v-48a8 8 0 0 1 8-8h400z m0-128a8 8 0 0 1 8 8v48a8 8 0 0 1-8 8H376a8 8 0 0 1-8-8v-48a8 8 0 0 1 8-8h400zM568 288a8 8 0 0 1 8 8v48a8 8 0 0 1-8 8H376a8 8 0 0 1-8-8v-48a8 8 0 0 1 8-8h192z" p-id="1564"></path></svg>