<svg t="1591923492839" class="icon" viewBox="0 0 1024 1024" version="1.1" xmlns="http://www.w3.org/2000/svg" p-id="925" width="200" height="200"><path d="M261.2 861.2H130c-17.6 0-31.8-14.2-31.8-31.8s14.2-31.8 31.8-31.8h131.2c14.5-56.2 65.1-95.5 123.2-95.5 58 0 108.7 39.3 123.2 95.5h385.6c17.6 0 31.8 14.2 31.8 31.8s-14.2 31.8-31.8 31.8H507.5c-14.5 56.2-65.1 95.5-123.2 95.5-58 0-108.7-39.3-123.1-95.5z m254.3-317.9H130c-17.6 0-31.8-14.2-31.8-31.8s14.2-31.8 31.8-31.8h385.6c14.5-56.2 65.1-95.5 123.2-95.5 58 0 108.7 39.3 123.2 95.5h131.2c17.6 0 31.8 14.2 31.8 31.8s-14.2 31.8-31.8 31.8H761.9c-14.5 56.2-65.1 95.5-123.2 95.5-58 0-108.7-39.3-123.2-95.5z m-254.3-318H130c-17.6 0-31.8-14.2-31.8-31.8s14.2-31.8 31.8-31.8h131.2c14.5-56.2 65.1-95.5 123.2-95.5 58 0 108.7 39.3 123.2 95.5h385.6c11.4 0 21.9 6.1 27.5 15.9 5.7 9.8 5.7 22 0 31.8s-16.2 15.9-27.5 15.9H507.5c-14.5 56.2-65.1 95.5-123.2 95.5-58 0-108.7-39.3-123.1-95.5z m123.2 31.8c22.7 0 43.7-12.1 55.1-31.8 11.4-19.7 11.4-43.9 0-63.6-11.4-19.7-32.4-31.8-55.1-31.8-35.1 0-63.6 28.5-63.6 63.6s28.4 63.6 63.6 63.6z m254.3 318c35.1 0 63.6-28.5 63.6-63.6s-28.5-63.6-63.6-63.6-63.6 28.5-63.6 63.6 28.5 63.6 63.6 63.6zM384.4 893c35.1 0 63.6-28.5 63.6-63.6s-28.5-63.6-63.6-63.6-63.6 28.5-63.6 63.6c0 35.2 28.4 63.6 63.6 63.6z m0 0" p-id="926"></path></svg>