<svg t="1591780223899" class="icon" viewBox="0 0 1024 1024" version="1.1" xmlns="http://www.w3.org/2000/svg" p-id="1686" width="200" height="200"><path d="M120 112h784a8 8 0 0 1 8 8v624a8 8 0 0 1-8 8H643.845a8 8 0 0 0-6.247 3.002l-100.61 125.763c-11.04 13.8-31.178 16.038-44.978 4.998a32 32 0 0 1-4.998-4.998l-100.61-125.763a8 8 0 0 0-6.247-3.002H120a8 8 0 0 1-8-8V120a8 8 0 0 1 8-8z m64 72v496h234.605L512 796.744 605.395 680H840V184H184z m80 184h112a8 8 0 0 1 8 8v112a8 8 0 0 1-8 8H264a8 8 0 0 1-8-8V376a8 8 0 0 1 8-8z m192 0h112a8 8 0 0 1 8 8v112a8 8 0 0 1-8 8H456a8 8 0 0 1-8-8V376a8 8 0 0 1 8-8z m192 0h112a8 8 0 0 1 8 8v112a8 8 0 0 1-8 8H648a8 8 0 0 1-8-8V376a8 8 0 0 1 8-8z" p-id="1687"></path></svg>